# xmcd
#
# Track frame offsets: 
#        150
#        9515
#        22595
#        33732
#        43252
#        53882
#        59650
#        68460
#        77490
#        89715
#        100280
#        111052
#        123490
#        134352
#        145707
#        156592
#        166810
#        175672
#        185030
#        195637
#        205265
#        218570
#        229095
#        238510
#        247617
#        256660
#        266880
#        279205
#        291020
#        301167
#        309077
#        317985
#        328797
#        339740
#        349610
#        357362
#
# Disc length: 4906 seconds
#
# Revision: 1
# Processed by: cddbd v1.5.2PL0 Copyright (c) Steve Scherf et al.
# Submitted via: ExactAudioCopyFreeDBPlugin 1.0
#
DISCID=06132824
DTITLE=Howard Crockett - Out Of Bounds: The Johnny Horton Connection
DYEAR=2007
DGENRE=Country
TTITLE0=Break Away Billy Boy
TTITLE1=Deep Elm Dave
TTITLE2=Trail of Tears
TTITLE3=Jessie And The Glendale Train
TTITLE4=If You'll Let Me
TTITLE5=Tell Me Why
TTITLE6=I Love This Girl
TTITLE7=Steamboat Bill
TTITLE8=The Ballad Of Thunder Road
TTITLE9=Please Answer The Phone
TTITLE10=Out Of Bounds Again
TTITLE11=The Great Titanic
TTITLE12=Going Down To Soldier
TTITLE13=You've Got Me Lyin'
TTITLE14=I'm Gonna Try Again
TTITLE15=Where Did My Baby Go
TTITLE16=Branded
TTITLE17=Night Rider
TTITLE18=Honky Tonk Man
TTITLE19=All Grown Up
TTITLE20=Sleufoot The Bear
TTITLE21=Johnny Reb
TTITLE22=I Got Stripes
TTITLE23=That Old Jukebox
TTITLE24=Just A Poor Man
TTITLE25=I've Got You Worried Too
TTITLE26=Seven Cards From Now
TTITLE27=Polly Ann
TTITLE28=Dunkerque (Dunkerk)
TTITLE29=Jessie And The Glendale Train
TTITLE30=Sugar Coated Baby
TTITLE31=You've Got Me Lyin'
TTITLE32=Untamed Heart
TTITLE33=If You'll Let Me
TTITLE34=Truddy Brown
TTITLE35=Seven Cards From Now
EXTD=
EXTT0=
EXTT1=
EXTT2=
EXTT3=
EXTT4=
EXTT5=
EXTT6=
EXTT7=
EXTT8=
EXTT9=
EXTT10=
EXTT11=
EXTT12=
EXTT13=
EXTT14=
EXTT15=
EXTT16=
EXTT17=
EXTT18=
EXTT19=
EXTT20=
EXTT21=
EXTT22=
EXTT23=
EXTT24=
EXTT25=
EXTT26=
EXTT27=
EXTT28=
EXTT29=
EXTT30=
EXTT31=
EXTT32=
EXTT33=
EXTT34=
EXTT35=
PLAYORDER=
